# xmcd
#
# Track frame offsets: 
#        150
#        19160
#        37040
#
# Disc length: 710 seconds
#
# Revision: 0
# Processed by: cddbd v1.5.2PL0 Copyright (c) Steve Scherf et al.
# Submitted via: ExactAudioCopy v0.99pb3
#
DISCID=1e02c403
DTITLE=Jessica Andrews - Who I Am [CD Single)
DYEAR=2001
DGENRE=Country
TTITLE0=Pop Version
TTITLE1=3 a.m. Pop Mix
TTITLE2=Album Edit
EXTD=
EXTT0=
EXTT1=
EXTT2=
PLAYORDER=
